<svg width="45" height="45" viewBox="0 0 45 45" fill="none" xmlns="http://www.w3.org/2000/svg">
<g clip-path="url(#clip0_1_5)">
<mask id="mask0_1_5" style="mask-type:luminance" maskUnits="userSpaceOnUse" x="0" y="0" width="45" height="45">
<path d="M45 0H0V45H45V0Z" fill="white"/>
</mask>
<g mask="url(#mask0_1_5)">
<path d="M0 0H4.58052V40.299H18.0529V44.8658H0V0Z" fill="#535353"/>
<path d="M13.4724 36.1347H18.0476V27.1339H22.4881V22.5711H18.0476V4.70103H26.9395V45H42.3079C42.3079 45 44.9991 44.8658 44.9991 41.7792V2.82089C44.9991 2.82089 45.1337 0.136887 42.0388 0.136887H35.9713V4.56549H40.4119V40.4372H31.5254V2.82089C31.5254 2.82089 31.3908 0.136887 29.1032 0.136887H15.6281C15.6281 0.136887 13.4751 0.539485 13.4751 2.82089L13.4724 36.1347Z" fill="#535353"/>
</g>
</g>
<defs>
<clipPath id="clip0_1_5">
<rect width="45" height="45" fill="white"/>
</clipPath>
</defs>
</svg>
